<svg width="15" height="15" viewBox="0 0 15 15" fill="none" xmlns="http://www.w3.org/2000/svg">
<g id="Group">
<path id="Vector" opacity="0.963" fill-rule="evenodd" clip-rule="evenodd" d="M15 7.58776C15 7.744 15 7.90027 15 8.05651C14.9376 8.21993 14.8448 8.36641 14.7217 8.49596C14.7176 9.22894 14.698 9.96136 14.6631 10.6932C14.5113 11.725 14.0376 12.5697 13.2422 13.2274C13.4171 13.5821 13.588 13.9385 13.7549 14.2967C13.7873 14.5347 13.6847 14.6714 13.4473 14.7069C13.3356 14.6926 13.2429 14.6438 13.1689 14.5604C13.0029 14.2284 12.8369 13.8963 12.6709 13.5643C12.1927 13.8317 11.68 13.9928 11.1328 14.0477C8.71093 14.0673 6.28907 14.0673 3.86719 14.0477C3.32004 13.9928 2.80734 13.8317 2.3291 13.5643C2.15731 13.9324 1.96688 14.2888 1.75781 14.6337C1.47231 14.7632 1.29653 14.6753 1.23047 14.37C1.39002 13.9825 1.5658 13.6016 1.75781 13.2274C0.961582 12.5679 0.487948 11.7232 0.336914 10.6932C0.301954 9.96136 0.282423 9.22894 0.27832 8.49596C0.146952 8.35979 0.054179 8.20355 0 8.02721C0 7.88073 0 7.73424 0 7.58776C0.143752 7.13427 0.456252 6.89014 0.9375 6.85534C0.932616 5.01936 0.9375 3.18344 0.952148 1.34752C1.09375 0.815297 1.43066 0.478383 1.96289 0.336782C2.60733 0.278568 3.25187 0.278568 3.89648 0.336782C4.51248 0.538005 4.8445 0.962809 4.89258 1.6112C5.44283 1.77574 5.78953 2.13707 5.93262 2.69518C5.95216 3.0858 5.95216 3.47644 5.93262 3.86706C5.88867 3.95005 5.82519 4.01354 5.74219 4.05748C4.94142 4.07703 4.14062 4.07703 3.33984 4.05748C3.21475 4.02028 3.1415 3.93725 3.12012 3.80846C3.10058 3.47644 3.10058 3.14439 3.12012 2.81237C3.2366 2.18319 3.60281 1.7828 4.21875 1.6112C4.18793 1.21413 3.97307 0.994406 3.57422 0.952016C3.08479 0.925409 2.5965 0.935177 2.10938 0.981313C1.85365 1.05147 1.68275 1.2126 1.59668 1.46471C1.58203 3.26155 1.57715 5.05844 1.58203 6.85534C5.77148 6.85044 9.96094 6.85534 14.1504 6.86998C14.5921 6.92621 14.8753 7.16544 15 7.58776ZM4.48242 2.19713C4.90286 2.22205 5.1714 2.4369 5.28809 2.84166C5.30273 3.03672 5.3076 3.23205 5.30273 3.4276C4.78515 3.4276 4.26759 3.4276 3.75 3.4276C3.63688 2.79326 3.88102 2.3831 4.48242 2.19713ZM0.9375 7.49987C5.30273 7.49497 9.66797 7.49987 14.0332 7.51452C14.3016 7.55817 14.3944 7.70952 14.3115 7.96862C14.2636 8.03629 14.2001 8.08024 14.1211 8.10045C9.71681 8.11999 5.31249 8.11999 0.908203 8.10045C0.644968 8.01828 0.58149 7.85714 0.717773 7.61705C0.783844 7.55849 0.857086 7.51944 0.9375 7.49987ZM0.9375 8.75963C5.31249 8.75963 9.68751 8.75963 14.0625 8.75963C14.0709 9.36573 14.0563 9.97121 14.0186 10.576C13.8098 11.8101 13.1311 12.6743 11.9824 13.1688C11.6702 13.2884 11.3479 13.3665 11.0156 13.4032C8.67188 13.4227 6.32812 13.4227 3.98438 13.4032C2.59951 13.2363 1.64736 12.5087 1.12793 11.2206C1.06063 11.01 1.01181 10.7951 0.981445 10.576C0.943746 9.97121 0.929098 9.36573 0.9375 8.75963Z" fill="#0A0A0A"/>
</g>
</svg>
