<svg width="15" height="15" viewBox="0 0 15 15" fill="none" xmlns="http://www.w3.org/2000/svg">
<path id="Vector" opacity="0.965" fill-rule="evenodd" clip-rule="evenodd" d="M2.5625 0.00216031C5.85419 -0.00360038 9.14584 0.00216031 12.4375 0.0194389C12.9742 0.140624 13.3232 0.491954 13.4844 1.07343C13.53 2.68518 13.5456 4.29786 13.5312 5.91144C14.301 5.962 14.7854 6.3997 14.9844 7.22462C15.0052 9.77035 15.0052 12.316 14.9844 14.8618C14.9687 14.9251 14.9323 14.9654 14.875 14.9827C14.3854 15.0058 13.8958 15.0058 13.4062 14.9827C13.3776 14.9698 13.3516 14.9525 13.3281 14.9309C13.282 14.266 13.2664 13.5979 13.2812 12.9266C9.42709 12.9266 5.5729 12.9266 1.71875 12.9266C1.72396 13.5717 1.71875 14.2168 1.70312 14.8618C1.67708 14.9136 1.64062 14.9539 1.59375 14.9827C1.10417 15.0058 0.614585 15.0058 0.125001 14.9827C0.0677101 14.9654 0.0312508 14.9251 0.0156258 14.8618C-0.00520859 12.3506 -0.00520859 9.83946 0.0156258 7.32829C0.193185 6.46951 0.67756 5.99722 1.46875 5.91144C1.45439 4.29786 1.47002 2.68518 1.51562 1.07343C1.68227 0.491522 2.03122 0.134432 2.5625 0.00216031ZM2.625 0.589633C5.91803 0.572652 9.20968 0.58993 12.5 0.641469C12.7861 0.77317 12.9476 1.00931 12.9844 1.34989C13 2.87037 13.0052 4.39089 13 5.91144C12.3229 5.91144 11.6458 5.91144 10.9687 5.91144C10.974 5.51963 10.9687 5.12796 10.9531 4.7365C10.9141 4.25266 10.711 3.87827 10.3437 3.61339C10.1959 3.52817 10.0396 3.47056 9.875 3.4406C8.29165 3.41755 6.70834 3.41755 5.125 3.4406C4.63778 3.54144 4.29925 3.84669 4.10937 4.35637C4.07984 4.48126 4.059 4.60798 4.04687 4.7365C4.03125 5.12796 4.02603 5.51963 4.03125 5.91144C3.35416 5.91144 2.67709 5.91144 2 5.91144C1.99479 4.39089 2 2.87037 2.01562 1.34989C2.07163 0.948344 2.27476 0.694925 2.625 0.589633ZM5.1875 4.0108C6.77228 3.99414 8.35562 4.01142 9.9375 4.06263C10.1643 4.16368 10.3154 4.34224 10.3906 4.59827C10.4343 5.03418 10.4499 5.47191 10.4375 5.91144C8.47915 5.91144 6.52084 5.91144 4.5625 5.91144C4.55728 5.53114 4.5625 5.15101 4.57812 4.77106C4.63412 4.3695 4.83725 4.11609 5.1875 4.0108ZM1.3125 6.49892C5.44794 6.49315 9.58334 6.49892 13.7187 6.5162C14.1094 6.62564 14.3541 6.89633 14.4531 7.32829C14.4986 8.59433 14.5142 9.8614 14.5 11.1296C9.84375 11.1296 5.1875 11.1296 0.53125 11.1296C0.526041 9.88546 0.53125 8.6414 0.546875 7.39741C0.648441 6.93385 0.903647 6.63435 1.3125 6.49892ZM0.5 11.6825C5.16665 11.6825 9.83334 11.6825 14.5 11.6825C14.5 11.9129 14.5 12.1433 14.5 12.3736C9.83334 12.3736 5.16665 12.3736 0.5 12.3736C0.5 12.1433 0.5 11.9129 0.5 11.6825ZM0.5 12.9266C0.729166 12.9266 0.958335 12.9266 1.1875 12.9266C1.1875 13.4334 1.1875 13.9402 1.1875 14.4471C0.958335 14.4471 0.729166 14.4471 0.5 14.4471C0.5 13.9402 0.5 13.4334 0.5 12.9266ZM13.8125 12.9266C14.0416 12.9266 14.2708 12.9266 14.5 12.9266C14.5 13.4334 14.5 13.9402 14.5 14.4471C14.2708 14.4471 14.0416 14.4471 13.8125 14.4471C13.8125 13.9402 13.8125 13.4334 13.8125 12.9266Z" fill="#0A0A0A"/>
</svg>
