<svg width="15" height="15" viewBox="0 0 15 15" fill="none" xmlns="http://www.w3.org/2000/svg">
<path opacity="0.974" fill-rule="evenodd" clip-rule="evenodd" d="M15 4.30425C15 7.76128 15 11.2183 15 14.6753C14.9421 14.7767 14.8542 14.8402 14.7363 14.8658C9.9121 14.8853 5.0879 14.8853 0.263672 14.8658C0.145764 14.8402 0.0578736 14.7767 0 14.6753C0 11.2183 0 7.76128 0 4.30425C0.0419361 4.2475 0.0907644 4.1938 0.146484 4.14312C2.52425 2.83219 4.89729 1.51383 7.26562 0.188037C7.44639 0.0878467 7.62217 0.0976122 7.79297 0.217334C10.1418 1.53336 12.4953 2.84195 14.8535 4.14312C14.9092 4.1938 14.9581 4.2475 15 4.30425ZM7.44141 0.90581C7.5271 0.904633 7.60521 0.929048 7.67578 0.979052C9.87305 2.20464 12.0703 3.43023 14.2676 4.65581C14.2969 7.82957 14.3066 11.0034 14.2969 14.1773C13.8672 14.1773 13.4375 14.1773 13.0078 14.1773C13.0223 11.5284 13.0077 8.88194 12.9639 6.23784C12.9199 6.1939 12.876 6.14995 12.832 6.10601C9.28711 6.08646 5.74219 6.08646 2.19727 6.10601C2.11426 6.14995 2.05078 6.21344 2.00684 6.29644C1.99219 8.92337 1.9873 11.5503 1.99219 14.1773C1.5625 14.1773 1.13281 14.1773 0.703125 14.1773C0.69336 11.0034 0.703125 7.82957 0.732422 4.65581C2.9753 3.41242 5.21162 2.16243 7.44141 0.90581ZM2.69531 6.79448C5.89843 6.79448 9.10157 6.79448 12.3047 6.79448C12.3047 7.22418 12.3047 7.65385 12.3047 8.08354C9.10157 8.08354 5.89843 8.08354 2.69531 8.08354C2.69531 7.65385 2.69531 7.22418 2.69531 6.79448ZM2.69531 8.78667C5.89843 8.78667 9.10157 8.78667 12.3047 8.78667C12.3047 9.21637 12.3047 9.64604 12.3047 10.0757C9.10157 10.0757 5.89843 10.0757 2.69531 10.0757C2.69531 9.64604 2.69531 9.21637 2.69531 8.78667ZM2.69531 10.7789C5.89843 10.7789 9.10157 10.7789 12.3047 10.7789C12.3047 11.2086 12.3047 11.6382 12.3047 12.0679C9.10157 12.0679 5.89843 12.0679 2.69531 12.0679C2.69531 11.6382 2.69531 11.2086 2.69531 10.7789ZM2.69531 12.771C5.89843 12.771 9.10157 12.771 12.3047 12.771C12.3047 13.2398 12.3047 13.7085 12.3047 14.1773C9.10157 14.1773 5.89843 14.1773 2.69531 14.1773C2.69531 13.7085 2.69531 13.2398 2.69531 12.771Z" fill="#0A0A0A"/>
</svg>
