<svg xmlns="http://www.w3.org/2000/svg" width="170" height="170" viewBox="0 0 170 170" fill="none">
  <path d="M16.3705 170C11.8699 170 8.01801 168.395 4.81486 165.185C1.60495 161.982 0 158.129 0 153.629V24.1771C0 19.6762 1.60495 15.8241 4.81486 12.6207C8.01801 9.41065 11.8699 7.8056 16.3705 7.8056H101.365V17.9428H16.3807C14.5561 17.9428 13.0592 18.5273 11.8902 19.6965C10.7211 20.8656 10.1365 22.3592 10.1365 24.1771V153.629C10.1365 155.446 10.7211 156.94 11.8902 158.109C13.066 159.278 14.5628 159.863 16.3807 159.863H145.814C147.639 159.863 149.132 159.278 150.295 158.109C151.457 156.94 152.041 155.446 152.048 153.629V68.6285H162.185V153.629C162.185 158.129 160.583 161.982 157.38 165.185C154.17 168.395 150.315 170 145.814 170H16.3705ZM139.59 50.6857V30.4114H119.317V20.2743H139.59V0H149.727V20.2743H170V30.4114H149.727V50.6857H139.59ZM35.4779 134.52H128.268L99.6118 96.3029L73.1048 129.837L55.3658 108.397L35.4779 134.52Z" fill="#444444"/>
</svg>