<svg width="30" height="30" viewBox="0 0 30 30" fill="none" xmlns="http://www.w3.org/2000/svg">
<path id="Vector" d="M0 27V12L9.54545 4.5L19.0909 12V13.0125C18.5682 13.2875 18.0795 13.6065 17.625 13.9695C17.1705 14.3325 16.75 14.7385 16.3636 15.1875V13.5L9.54545 8.175L2.72727 13.5V24H5.45455V16.5H13.6364V24H13.7386C13.8068 24.525 13.9091 25.0375 14.0455 25.5375C14.1818 26.0375 14.3523 26.525 14.5568 27H10.9091V19.5H8.18182V27H0ZM30 0V15.1875C29.6136 14.7375 29.1932 14.331 28.7386 13.968C28.2841 13.605 27.7955 13.2865 27.2727 13.0125V3H15V5.1L12.2727 2.925V0H30ZM21.8182 9H24.5455V6H21.8182V9ZM23.1818 30C21.2955 30 19.6873 29.2685 18.3573 27.8055C17.0273 26.3425 16.3627 24.574 16.3636 22.5C16.3636 20.425 17.0286 18.656 18.3586 17.193C19.6886 15.73 21.2964 14.999 23.1818 15C25.0682 15 26.6764 15.7315 28.0064 17.1945C29.3364 18.6575 30.0009 20.426 30 22.5C30 24.575 29.335 26.344 28.005 27.807C26.675 29.27 25.0673 30.001 23.1818 30ZM22.5 27H23.8636V23.25H27.2727V21.75H23.8636V18H22.5V21.75H19.0909V23.25H22.5V27Z" fill="#6C7E82"/>
</svg>
