<svg width="20" height="21" viewBox="0 0 20 21" fill="none" xmlns="http://www.w3.org/2000/svg">
<g id="Group">
<path id="Vector" opacity="0.963" fill-rule="evenodd" clip-rule="evenodd" d="M20 10.617C20 10.8253 20 11.0337 20 11.242C19.9168 11.4599 19.7931 11.6552 19.6289 11.8279C19.6234 12.8052 19.5974 13.7818 19.5508 14.7576C19.3484 16.1333 18.7168 17.2596 17.6562 18.1365C17.8895 18.6094 18.1173 19.0846 18.3398 19.5623C18.383 19.8795 18.2463 20.0618 17.9297 20.1092C17.7809 20.0901 17.6571 20.025 17.5586 19.9139C17.3372 19.4712 17.1159 19.0284 16.8945 18.5857C16.2569 18.9422 15.5733 19.157 14.8438 19.2303C11.6146 19.2563 8.38543 19.2563 5.15625 19.2303C4.42672 19.157 3.74312 18.9422 3.10547 18.5857C2.87642 19.0765 2.62251 19.5518 2.34375 20.0115C1.96309 20.1842 1.72871 20.067 1.64062 19.66C1.85336 19.1433 2.08773 18.6355 2.34375 18.1365C1.28211 17.2572 0.650598 16.1309 0.449219 14.7576C0.402606 13.7818 0.376564 12.8052 0.371094 11.8279C0.195936 11.6464 0.0722387 11.438 0 11.2029C0 11.0076 0 10.8123 0 10.617C0.191669 10.0123 0.608336 9.68683 1.25 9.64043C1.24349 7.19246 1.25 4.74457 1.26953 2.29668C1.45833 1.58704 1.90755 1.13782 2.61719 0.949022C3.47645 0.871403 4.33582 0.871403 5.19531 0.949022C6.01664 1.21732 6.45934 1.78373 6.52344 2.64824C7.25711 2.86764 7.71938 3.34941 7.91016 4.09355C7.93621 4.61437 7.93621 5.13523 7.91016 5.65605C7.85156 5.76672 7.76691 5.85137 7.65625 5.90996C6.58855 5.93601 5.52082 5.93601 4.45312 5.90996C4.28633 5.86035 4.18867 5.74965 4.16016 5.57793C4.1341 5.13523 4.1341 4.6925 4.16016 4.2498C4.31547 3.41091 4.80375 2.87705 5.625 2.64824C5.58391 2.11882 5.29742 1.82585 4.76562 1.76933C4.11305 1.73386 3.462 1.74688 2.8125 1.8084C2.47153 1.90194 2.24367 2.11678 2.12891 2.45293C2.10938 4.84871 2.10286 7.24457 2.10938 9.64043C7.69531 9.63391 13.2812 9.64043 18.8672 9.65996C19.4561 9.73492 19.8337 10.0539 20 10.617ZM5.97656 3.42949C6.53715 3.46271 6.8952 3.74917 7.05078 4.28887C7.07031 4.54894 7.0768 4.80937 7.07031 5.07012C6.3802 5.07012 5.69012 5.07012 5 5.07012C4.84918 4.22432 5.17469 3.67745 5.97656 3.42949ZM1.25 10.4998C7.07031 10.4933 12.8906 10.4998 18.7109 10.5193C19.0688 10.5775 19.1925 10.7793 19.082 11.1248C19.0181 11.215 18.9334 11.2736 18.8281 11.3006C12.9557 11.3266 7.08332 11.3266 1.21094 11.3006C0.859957 11.191 0.77532 10.9762 0.957031 10.6561C1.04513 10.578 1.14278 10.5259 1.25 10.4998ZM1.25 12.1795C7.08332 12.1795 12.9167 12.1795 18.75 12.1795C18.7612 12.9876 18.7417 13.7949 18.6914 14.6014C18.4131 16.2468 17.5082 17.3991 15.9766 18.0584C15.5602 18.2178 15.1305 18.322 14.6875 18.3709C11.5625 18.397 8.4375 18.397 5.3125 18.3709C3.46601 18.1484 2.19648 17.1783 1.50391 15.4607C1.41418 15.18 1.34907 14.8935 1.30859 14.6014C1.25833 13.7949 1.2388 12.9876 1.25 12.1795Z" fill="#0A0A0A"/>
</g>
</svg>
