<svg width="20" height="21" viewBox="0 0 20 21" fill="none" xmlns="http://www.w3.org/2000/svg">
<path id="Vector" opacity="0.965" fill-rule="evenodd" clip-rule="evenodd" d="M3.41667 0.50288C7.80558 0.495199 12.1945 0.50288 16.5833 0.525919C17.299 0.687499 17.7642 1.15594 17.9792 1.93125C18.0399 4.08024 18.0608 6.23048 18.0417 8.38193C19.068 8.44933 19.7138 9.03294 19.9792 10.1328C20.0069 13.5271 20.0069 16.9214 19.9792 20.3157C19.9583 20.4001 19.9097 20.4539 19.8333 20.4769C19.1805 20.5077 18.5278 20.5077 17.875 20.4769C17.8368 20.4597 17.8021 20.4367 17.7708 20.4078C17.7094 19.5213 17.6885 18.6305 17.7083 17.7354C12.5695 17.7354 7.43054 17.7354 2.29167 17.7354C2.29861 18.5957 2.29166 19.4557 2.27083 20.3157C2.23611 20.3848 2.1875 20.4386 2.125 20.4769C1.47222 20.5077 0.819446 20.5077 0.166668 20.4769C0.0902801 20.4539 0.0416677 20.4001 0.0208344 20.3157C-0.00694479 16.9675 -0.00694479 13.6193 0.0208344 10.2711C0.25758 9.12601 0.903413 8.49629 1.95833 8.38193C1.93919 6.23048 1.96003 4.08024 2.02083 1.93125C2.24302 1.15536 2.7083 0.679242 3.41667 0.50288ZM3.5 1.28618C7.8907 1.26354 12.2796 1.28657 16.6667 1.35529C17.0482 1.53089 17.2635 1.84575 17.3125 2.29986C17.3333 4.32717 17.3403 6.35452 17.3333 8.38193C16.4305 8.38193 15.5278 8.38193 14.625 8.38193C14.632 7.85951 14.625 7.33728 14.6042 6.81533C14.5521 6.17022 14.2813 5.67103 13.7917 5.31785C13.5945 5.20423 13.3862 5.12742 13.1667 5.08747C11.0555 5.05674 8.94446 5.05674 6.83333 5.08747C6.18371 5.22192 5.73233 5.62891 5.47917 6.30849C5.43979 6.47501 5.412 6.64397 5.39583 6.81533C5.375 7.33728 5.36804 7.85951 5.375 8.38193C4.47221 8.38193 3.56946 8.38193 2.66667 8.38193C2.65972 6.35452 2.66667 4.32717 2.6875 2.29986C2.76218 1.76446 3.03301 1.42657 3.5 1.28618ZM6.91666 5.84773C9.0297 5.82552 11.1408 5.84856 13.25 5.91684C13.5524 6.05157 13.7538 6.28965 13.8542 6.63103C13.9124 7.21223 13.9332 7.79588 13.9167 8.38193C11.3055 8.38193 8.69446 8.38193 6.08333 8.38193C6.07637 7.87486 6.08333 7.36802 6.10416 6.86141C6.17883 6.326 6.44966 5.98812 6.91666 5.84773ZM1.75 9.16522C7.26391 9.15753 12.7778 9.16522 18.2917 9.18826C18.8125 9.33418 19.1389 9.6951 19.2708 10.2711C19.3314 11.9591 19.3522 13.6485 19.3333 15.3394C13.125 15.3394 6.91666 15.3394 0.708334 15.3394C0.701388 13.6806 0.708334 12.0219 0.729167 10.3632C0.864588 9.74514 1.20486 9.34579 1.75 9.16522ZM0.666667 16.0767C6.88887 16.0767 13.1111 16.0767 19.3333 16.0767C19.3333 16.3839 19.3333 16.691 19.3333 16.9982C13.1111 16.9982 6.88887 16.9982 0.666667 16.9982C0.666667 16.691 0.666667 16.3839 0.666667 16.0767ZM0.666667 17.7354C0.972221 17.7354 1.27778 17.7354 1.58333 17.7354C1.58333 18.4112 1.58333 19.087 1.58333 19.7628C1.27778 19.7628 0.972221 19.7628 0.666667 19.7628C0.666667 19.087 0.666667 18.4112 0.666667 17.7354ZM18.4167 17.7354C18.7222 17.7354 19.0278 17.7354 19.3333 17.7354C19.3333 18.4112 19.3333 19.087 19.3333 19.7628C19.0278 19.7628 18.7222 19.7628 18.4167 19.7628C18.4167 19.087 18.4167 18.4112 18.4167 17.7354Z" fill="#0A0A0A"/>
</svg>
