<svg width="12" height="20" viewBox="0 0 12 20" fill="none" xmlns="http://www.w3.org/2000/svg">
<path id="Vector" fill-rule="evenodd" clip-rule="evenodd" d="M7 3.00301C7 3.32127 6.89464 3.62649 6.70711 3.85154C6.51957 4.07658 6.26522 4.20301 6 4.20301C5.73478 4.20301 5.48043 4.07658 5.29289 3.85154C5.10536 3.62649 5 3.32127 5 3.00301C5 2.68475 5.10536 2.37952 5.29289 2.15448C5.48043 1.92944 5.73478 1.80301 6 1.80301C6.26522 1.80301 6.51957 1.92944 6.70711 2.15448C6.89464 2.37952 7 2.68475 7 3.00301ZM8.45 2.40301C8.33524 1.72483 8.02864 1.11512 7.58213 0.677181C7.13562 0.239239 6.57668 0 6 0C5.42332 0 4.86438 0.239239 4.41787 0.677181C3.97136 1.11512 3.66476 1.72483 3.55 2.40301H1C0.734784 2.40301 0.48043 2.52944 0.292893 2.75448C0.105357 2.97952 0 3.28475 0 3.60301V18.003C0 18.3213 0.105357 18.6265 0.292893 18.8515C0.48043 19.0766 0.734784 19.203 1 19.203H11C11.2652 19.203 11.5196 19.0766 11.7071 18.8515C11.8946 18.6265 12 18.3213 12 18.003V3.60301C12 3.28475 11.8946 2.97952 11.7071 2.75448C11.5196 2.52944 11.2652 2.40301 11 2.40301H8.45ZM6 6.00301H3.5V4.20301H1.5V17.403H10.5V4.20301H8.5V6.00301H6ZM3 9.30301C3 9.06431 3.07902 8.83539 3.21967 8.66661C3.36032 8.49783 3.55109 8.40301 3.75 8.40301H8.25C8.44891 8.40301 8.63968 8.49783 8.78033 8.66661C8.92098 8.83539 9 9.06431 9 9.30301C9 9.5417 8.92098 9.77062 8.78033 9.9394C8.63968 10.1082 8.44891 10.203 8.25 10.203H3.75C3.55109 10.203 3.36032 10.1082 3.21967 9.9394C3.07902 9.77062 3 9.5417 3 9.30301ZM3.75 11.403C3.55109 11.403 3.36032 11.4978 3.21967 11.6666C3.07902 11.8354 3 12.0643 3 12.303C3 12.5417 3.07902 12.7706 3.21967 12.9394C3.36032 13.1082 3.55109 13.203 3.75 13.203H8.25C8.44891 13.203 8.63968 13.1082 8.78033 12.9394C8.92098 12.7706 9 12.5417 9 12.303C9 12.0643 8.92098 11.8354 8.78033 11.6666C8.63968 11.4978 8.44891 11.403 8.25 11.403H3.75Z" fill="#0A0A0A"/>
</svg>
