<svg width="20" height="21" viewBox="0 0 20 21" fill="none" xmlns="http://www.w3.org/2000/svg">
<g id="Group">
<path id="Vector" opacity="0.974" fill-rule="evenodd" clip-rule="evenodd" d="M20 6.239C20 10.8484 20 15.4577 20 20.0671C19.9229 20.2023 19.8057 20.2869 19.6484 20.321C13.2161 20.3471 6.78387 20.3471 0.351562 20.321C0.194352 20.2869 0.0771648 20.2023 0 20.0671C0 15.4577 0 10.8484 0 6.239C0.0559148 6.16333 0.121019 6.09173 0.195312 6.02415C3.36567 4.27625 6.52973 2.51843 9.6875 0.750716C9.92852 0.617129 10.1629 0.63015 10.3906 0.789778C13.5223 2.54448 16.6604 4.28927 19.8047 6.02415C19.879 6.09173 19.9441 6.16333 20 6.239ZM9.92188 1.70775C10.0361 1.70618 10.1403 1.73873 10.2344 1.8054C13.1641 3.43952 16.0938 5.07365 19.0234 6.70775C19.0625 10.9394 19.0755 15.1712 19.0625 19.4031C18.4896 19.4031 17.9167 19.4031 17.3438 19.4031C17.3631 15.8712 17.3436 12.3426 17.2852 8.81712C17.2266 8.75853 17.168 8.69993 17.1094 8.64134C12.3828 8.61529 7.65625 8.61529 2.92969 8.64134C2.81901 8.69993 2.73438 8.78458 2.67578 8.89525C2.65625 12.3978 2.64974 15.9004 2.65625 19.4031C2.08333 19.4031 1.51042 19.4031 0.9375 19.4031C0.92448 15.1712 0.9375 10.9394 0.976562 6.70775C3.96707 5.0499 6.94883 3.38324 9.92188 1.70775ZM3.59375 9.55931C7.86457 9.55931 12.1354 9.55931 16.4062 9.55931C16.4062 10.1322 16.4062 10.7051 16.4062 11.2781C12.1354 11.2781 7.86457 11.2781 3.59375 11.2781C3.59375 10.7051 3.59375 10.1322 3.59375 9.55931ZM3.59375 12.2156C7.86457 12.2156 12.1354 12.2156 16.4062 12.2156C16.4062 12.7885 16.4062 13.3614 16.4062 13.9343C12.1354 13.9343 7.86457 13.9343 3.59375 13.9343C3.59375 13.3614 3.59375 12.7885 3.59375 12.2156ZM3.59375 14.8718C7.86457 14.8718 12.1354 14.8718 16.4062 14.8718C16.4062 15.4447 16.4062 16.0176 16.4062 16.5906C12.1354 16.5906 7.86457 16.5906 3.59375 16.5906C3.59375 16.0176 3.59375 15.4447 3.59375 14.8718ZM3.59375 17.5281C7.86457 17.5281 12.1354 17.5281 16.4062 17.5281C16.4062 18.1531 16.4062 18.7781 16.4062 19.4031C12.1354 19.4031 7.86457 19.4031 3.59375 19.4031C3.59375 18.7781 3.59375 18.1531 3.59375 17.5281Z" fill="#0A0A0A"/>
</g>
</svg>
