<svg xmlns="http://www.w3.org/2000/svg" width="15" height="16" viewBox="0 0 15 16" fill="none">
  <path fill-rule="evenodd" clip-rule="evenodd" d="M7.50007 14.1257L7.95078 13.584C8.46221 12.9592 8.92221 12.3665 9.3315 11.8027L9.66935 11.3272C11.0801 9.2998 11.7858 7.69066 11.7858 6.50133C11.7858 3.96266 9.86721 1.90475 7.50007 1.90475C5.13293 1.90475 3.21436 3.96266 3.21436 6.50133C3.21436 7.69066 3.92007 9.2998 5.33078 11.3272L5.66864 11.8027C6.25253 12.6007 6.8634 13.375 7.50007 14.1257Z" stroke="#0A0A0A" stroke-linecap="round" stroke-linejoin="round"/>
  <path d="M7.50007 8.38093C8.48629 8.38093 9.28578 7.52814 9.28578 6.47617C9.28578 5.4242 8.48629 4.57141 7.50007 4.57141C6.51385 4.57141 5.71436 5.4242 5.71436 6.47617C5.71436 7.52814 6.51385 8.38093 7.50007 8.38093Z" stroke="#0A0A0A" stroke-linecap="round" stroke-linejoin="round"/>
</svg>