<svg xmlns="http://www.w3.org/2000/svg" width="20" height="18" viewBox="0 0 20 18" fill="none">
  <path fill-rule="evenodd" clip-rule="evenodd" d="M1.25002 0C0.918492 0 0.600545 0.135459 0.366121 0.376577C0.131698 0.617695 0 0.944722 0 1.28571V16.7143C0 17.0553 0.131698 17.3823 0.366121 17.6234C0.600545 17.8645 0.918492 18 1.25002 18C1.58154 18 1.89949 17.8645 2.13391 17.6234C2.36834 17.3823 2.50003 17.0553 2.50003 16.7143V1.28571C2.50003 0.944722 2.36834 0.617695 2.13391 0.376577C1.89949 0.135459 1.58154 0 1.25002 0ZM14.1164 11.9481C13.8887 12.1906 13.7627 12.5154 13.7656 12.8525C13.7684 13.1896 13.8999 13.5121 14.1317 13.7505C14.3634 13.9889 14.6769 14.1241 15.0047 14.127C15.3324 14.1299 15.6482 14.0003 15.884 13.7661L19.634 9.909C19.8684 9.66789 20 9.34093 20 9C20 8.65907 19.8684 8.33211 19.634 8.091L15.884 4.23386C15.7687 4.11106 15.6307 4.01311 15.4782 3.94573C15.3257 3.87834 15.1617 3.84288 14.9957 3.84139C14.8297 3.83991 14.6651 3.87244 14.5115 3.93709C14.3579 4.00173 14.2183 4.0972 14.1009 4.21792C13.9836 4.33864 13.8908 4.48219 13.8279 4.6402C13.7651 4.79821 13.7334 4.96751 13.7349 5.13823C13.7363 5.30895 13.7708 5.47766 13.8363 5.63452C13.9018 5.79138 13.997 5.93325 14.1164 6.05186L15.7327 7.71429H6.25008C5.91856 7.71429 5.60061 7.84975 5.36619 8.09086C5.13176 8.33198 5.00007 8.65901 5.00007 9C5.00007 9.34099 5.13176 9.66802 5.36619 9.90914C5.60061 10.1503 5.91856 10.2857 6.25008 10.2857H15.7327L14.1164 11.9481Z" fill="black"/>
</svg>