<svg width="25" height="24" viewBox="0 0 25 24" fill="none" xmlns="http://www.w3.org/2000/svg">
<g id="mingcute:search-line" clip-path="url(#clip0_217_2)">
<g id="Group">
<path id="Vector" fill-rule="evenodd" clip-rule="evenodd" d="M22.5 10.5C22.4999 9.1446 22.1756 7.80887 21.5543 6.60427C20.933 5.39966 20.0326 4.3611 18.9282 3.57525C17.8239 2.78939 16.5477 2.27902 15.206 2.08672C13.8643 1.89442 12.496 2.02576 11.2154 2.46979C9.9348 2.91382 8.77895 3.65766 7.84427 4.63925C6.9096 5.62084 6.22322 6.81171 5.8424 8.11252C5.46158 9.41333 5.39735 10.7864 5.65509 12.117C5.91282 13.4477 6.48504 14.6975 7.324 15.762L3.672 19.414C3.48984 19.6026 3.38905 19.8552 3.39133 20.1174C3.39361 20.3796 3.49877 20.6304 3.68418 20.8158C3.86959 21.0012 4.1204 21.1064 4.3826 21.1087C4.6448 21.111 4.8974 21.0102 5.086 20.828L8.738 17.176C9.99138 18.164 11.4976 18.7792 13.0843 18.9511C14.6709 19.123 16.274 18.8448 17.7099 18.1482C19.1458 17.4517 20.3566 16.3649 21.2038 15.0123C22.0509 13.6597 22.5001 12.096 22.5 10.5ZM14 4.00001C15.7239 4.00001 17.3772 4.68483 18.5962 5.90382C19.8152 7.1228 20.5 8.7761 20.5 10.5C20.5 12.2239 19.8152 13.8772 18.5962 15.0962C17.3772 16.3152 15.7239 17 14 17C12.2761 17 10.6228 16.3152 9.40381 15.0962C8.18482 13.8772 7.5 12.2239 7.5 10.5C7.5 8.7761 8.18482 7.1228 9.40381 5.90382C10.6228 4.68483 12.2761 4.00001 14 4.00001Z" fill="#4A6165"/>
</g>
</g>
<defs>
<clipPath id="clip0_217_2">
<rect width="24" height="24" fill="white" transform="matrix(0 1 -1 0 24.5 0)"/>
</clipPath>
</defs>
</svg>
