<svg width="20" height="16" viewBox="0 0 20 16" fill="none" xmlns="http://www.w3.org/2000/svg">
<path id="Vector" d="M0 3.9375C0 3.02582 0.362164 2.15148 1.00682 1.50682C1.65148 0.862164 2.52582 0.5 3.4375 0.5H16.5625C17.4742 0.5 18.3485 0.862164 18.9932 1.50682C19.6378 2.15148 20 3.02582 20 3.9375V12.0625C20 12.9742 19.6378 13.8485 18.9932 14.4932C18.3485 15.1378 17.4742 15.5 16.5625 15.5H3.4375C2.52582 15.5 1.65148 15.1378 1.00682 14.4932C0.362164 13.8485 0 12.9742 0 12.0625V3.9375ZM3.4375 1.75C2.85734 1.75 2.30094 1.98047 1.8907 2.3907C1.48047 2.80094 1.25 3.35734 1.25 3.9375V12.0625C1.25 13.27 2.23 14.25 3.4375 14.25H16.5625C17.1427 14.25 17.6991 14.0195 18.1093 13.6093C18.5195 13.1991 18.75 12.6427 18.75 12.0625V3.9375C18.75 3.35734 18.5195 2.80094 18.1093 2.3907C17.6991 1.98047 17.1427 1.75 16.5625 1.75H3.4375ZM11.25 3.625C11.25 3.45924 11.3158 3.30027 11.4331 3.18306C11.5503 3.06585 11.7092 3 11.875 3H14.375C14.5408 3 14.6997 3.06585 14.8169 3.18306C14.9342 3.30027 15 3.45924 15 3.625V6.125C15 6.29076 14.9342 6.44973 14.8169 6.56694C14.6997 6.68415 14.5408 6.75 14.375 6.75C14.2092 6.75 14.0503 6.68415 13.9331 6.56694C13.8158 6.44973 13.75 6.29076 13.75 6.125V5.13375L11.6925 7.1925C11.5751 7.30986 11.416 7.37579 11.25 7.37579C11.084 7.37579 10.9249 7.30986 10.8075 7.1925C10.6901 7.07514 10.6242 6.91597 10.6242 6.75C10.6242 6.58403 10.6901 6.42486 10.8075 6.3075L12.8663 4.25H11.875C11.7092 4.25 11.5503 4.18415 11.4331 4.06694C11.3158 3.94973 11.25 3.79076 11.25 3.625ZM8.3075 8.8075C8.42486 8.69014 8.58403 8.62421 8.75 8.62421C8.91597 8.62421 9.07514 8.69014 9.1925 8.8075C9.30986 8.92486 9.37579 9.08403 9.37579 9.25C9.37579 9.41597 9.30986 9.57514 9.1925 9.6925L7.13375 11.75H8.125C8.29076 11.75 8.44973 11.8158 8.56694 11.9331C8.68415 12.0503 8.75 12.2092 8.75 12.375C8.75 12.5408 8.68415 12.6997 8.56694 12.8169C8.44973 12.9342 8.29076 13 8.125 13H5.625C5.45924 13 5.30027 12.9342 5.18306 12.8169C5.06585 12.6997 5 12.5408 5 12.375V9.875C5 9.70924 5.06585 9.55027 5.18306 9.43306C5.30027 9.31585 5.45924 9.25 5.625 9.25C5.79076 9.25 5.94973 9.31585 6.06694 9.43306C6.18415 9.55027 6.25 9.70924 6.25 9.875V10.8663L8.3075 8.8075Z" fill="#0A0A0A"/>
</svg>
